<?xml version="1.0" standalone="no"?>
<!DOCTYPE svg PUBLIC "-//W3C//DTD SVG 20010904//EN"
 "http://www.w3.org/TR/2001/REC-SVG-20010904/DTD/svg10.dtd">
<svg version="1.0" xmlns="http://www.w3.org/2000/svg"
 width="417.000000pt" height="902.000000pt" viewBox="0 0 417.000000 902.000000"
 preserveAspectRatio="xMidYMid meet">
<metadata>
Created by potrace 1.16, written by Peter Selinger 2001-2019
</metadata>
<g transform="translate(0.000000,902.000000) scale(0.100000,-0.100000)"
fill="#000000" stroke="none">
<path d="M115 9006 c-43 -19 -94 -74 -106 -116 -7 -23 -9 -1461 -7 -4401 l3
-4365 24 -36 c13 -19 40 -46 59 -59 l36 -24 1961 0 1961 0 36 24 c19 13 46 40
59 59 l24 36 0 4386 0 4386 -24 36 c-13 19 -40 46 -59 59 l-36 24 -1950 2
c-1597 2 -1956 0 -1981 -11z m3910 -7 c51 -14 110 -73 124 -124 16 -57 16
-8673 0 -8730 -14 -51 -73 -110 -124 -124 -57 -16 -3823 -16 -3880 0 -51 14
-110 73 -124 124 -15 56 -16 8673 0 8728 14 51 64 104 114 122 34 12 329 14
1945 15 1360 0 1916 -3 1945 -11z"/>
<path d="M1931 4586 c-9 -11 -11 -60 -9 -169 3 -148 4 -155 31 -195 49 -75
160 -107 234 -69 44 23 91 81 99 122 15 84 -24 178 -88 211 -36 19 -117 24
-160 10 -27 -8 -28 -7 -28 29 0 20 -5 45 -10 56 -13 22 -52 25 -69 5z m260
-185 c25 -25 29 -37 29 -81 0 -45 -4 -56 -31 -81 -36 -34 -87 -46 -120 -29
-66 34 -89 84 -69 145 17 51 53 75 112 75 41 0 54 -5 79 -29z"/>
</g>
</svg>
