<?xml version="1.0" standalone="no"?>
<!DOCTYPE svg PUBLIC "-//W3C//DTD SVG 20010904//EN"
 "http://www.w3.org/TR/2001/REC-SVG-20010904/DTD/svg10.dtd">
<svg version="1.0" xmlns="http://www.w3.org/2000/svg"
 width="1000.000000pt" height="1000.000000pt" viewBox="0 0 1000.000000 1000.000000"
 preserveAspectRatio="xMidYMid meet">

<g transform="translate(0.000000,1000.000000) scale(0.100000,-0.100000)"
fill="#000000" stroke="none">
<path d="M0 5000 l0 -5000 5000 0 5000 0 0 5000 0 5000 -5000 0 -5000 0 0
-5000z m5405 4875 c955 -83 1837 -426 2585 -1004 408 -316 786 -720 1073
-1146 168 -249 365 -621 476 -898 182 -453 296 -941 340 -1462 9 -110 8 -718
-2 -765 -3 -14 -8 -59 -12 -100 -26 -305 -110 -703 -221 -1037 -330 -1002
-992 -1885 -1864 -2487 -679 -469 -1419 -745 -2265 -843 -214 -25 -816 -25
-1030 0 -372 44 -678 109 -1000 214 -145 47 -348 123 -387 145 -13 6 -27 13
-33 14 -5 1 -46 19 -90 40 -44 20 -86 38 -93 40 -24 4 -387 210 -502 284 -593
381 -1069 847 -1447 1415 -453 680 -706 1386 -800 2225 -24 218 -24 762 0 980
72 649 241 1215 522 1757 419 807 1053 1481 1830 1948 355 214 738 382 1135
499 228 67 362 96 696 151 11 1 52 6 90 10 38 4 78 9 89 11 11 2 67 7 125 10
58 4 107 8 108 9 11 9 550 1 677 -10z"/>
</g>
</svg>
