<svg width="360" height="125" viewBox="0 0 360 125" fill="none" xmlns="http://www.w3.org/2000/svg">
<g filter="url(#filter0_dd_275_1776)">
<g clip-path="url(#clip0_275_1776)">
<path d="M146.022 35.56C146.849 35.56 147.469 35.38 147.882 35.02C148.296 34.66 148.502 34.2067 148.502 33.66C148.502 33.18 148.342 32.7867 148.022 32.48C147.702 32.1733 147.209 31.92 146.542 31.72L145.022 31.26C144.409 31.0733 143.876 30.84 143.422 30.56C142.969 30.28 142.616 29.9267 142.362 29.5C142.109 29.0733 141.982 28.56 141.982 27.96C141.982 26.9067 142.369 26.08 143.142 25.48C143.929 24.8667 144.982 24.56 146.302 24.56C147.036 24.56 147.689 24.64 148.262 24.8C148.849 24.9467 149.302 25.1467 149.622 25.4C149.956 25.6533 150.122 25.94 150.122 26.26C150.122 26.4733 150.069 26.6667 149.962 26.84C149.856 27 149.716 27.1333 149.542 27.24C149.222 26.9867 148.789 26.7667 148.242 26.58C147.696 26.3933 147.096 26.3 146.442 26.3C145.722 26.3 145.156 26.4533 144.742 26.76C144.329 27.0533 144.122 27.4533 144.122 27.96C144.122 28.36 144.269 28.6867 144.562 28.94C144.856 29.18 145.316 29.3933 145.942 29.58L147.122 29.94C148.229 30.26 149.089 30.7133 149.702 31.3C150.329 31.8733 150.642 32.66 150.642 33.66C150.642 34.74 150.242 35.6133 149.442 36.28C148.642 36.9467 147.509 37.28 146.042 37.28C145.229 37.28 144.509 37.1867 143.882 37C143.269 36.8267 142.789 36.6 142.442 36.32C142.096 36.0267 141.922 35.7133 141.922 35.38C141.922 35.1133 142.002 34.8933 142.162 34.72C142.322 34.5333 142.502 34.3933 142.702 34.3C143.036 34.5933 143.476 34.88 144.022 35.16C144.582 35.4267 145.249 35.56 146.022 35.56ZM153.168 29.36H155.268V36.96C155.174 36.9867 155.041 37.02 154.868 37.06C154.694 37.1 154.508 37.12 154.308 37.12C153.908 37.12 153.614 37.0467 153.428 36.9C153.254 36.74 153.168 36.4867 153.168 36.14V29.36ZM155.268 31.52H153.168V24.86C153.261 24.8333 153.394 24.8067 153.568 24.78C153.754 24.74 153.948 24.72 154.148 24.72C154.534 24.72 154.814 24.7933 154.988 24.94C155.174 25.0733 155.268 25.32 155.268 25.68V31.52ZM160.908 29.36H163.028V36.96C162.921 36.9867 162.781 37.02 162.608 37.06C162.434 37.1 162.248 37.12 162.048 37.12C161.648 37.12 161.354 37.0467 161.168 36.9C160.994 36.74 160.908 36.4867 160.908 36.14V29.36ZM163.028 31.52H160.908V24.86C161.001 24.8333 161.141 24.8067 161.328 24.78C161.514 24.74 161.701 24.72 161.888 24.72C162.274 24.72 162.561 24.7933 162.748 24.94C162.934 25.0867 163.028 25.34 163.028 25.7V31.52ZM162.068 31.72H154.288V30H162.068V31.72ZM177.551 30.92C177.551 32.3067 177.291 33.4733 176.771 34.42C176.251 35.3667 175.545 36.08 174.651 36.56C173.758 37.04 172.745 37.28 171.611 37.28C170.491 37.28 169.478 37.04 168.571 36.56C167.678 36.08 166.971 35.3667 166.451 34.42C165.931 33.4733 165.671 32.3067 165.671 30.92C165.671 29.5333 165.938 28.3667 166.471 27.42C167.005 26.4733 167.718 25.76 168.611 25.28C169.505 24.8 170.505 24.56 171.611 24.56C172.731 24.56 173.738 24.8 174.631 25.28C175.525 25.76 176.231 26.4733 176.751 27.42C177.285 28.3667 177.551 29.5333 177.551 30.92ZM175.391 30.92C175.391 29.4267 175.045 28.2867 174.351 27.5C173.671 26.7 172.758 26.3 171.611 26.3C170.478 26.3 169.565 26.7 168.871 27.5C168.178 28.2867 167.831 29.4267 167.831 30.92C167.831 32.4133 168.171 33.56 168.851 34.36C169.545 35.1467 170.465 35.54 171.611 35.54C172.771 35.54 173.691 35.1467 174.371 34.36C175.051 33.56 175.391 32.4133 175.391 30.92ZM182.299 31.1H183.999C184.932 31.1 185.659 30.9 186.179 30.5C186.712 30.0867 186.979 29.48 186.979 28.68C186.979 27.8667 186.725 27.2733 186.219 26.9C185.725 26.5133 185.005 26.32 184.059 26.32C183.739 26.32 183.425 26.3333 183.119 26.36C182.825 26.3867 182.552 26.42 182.299 26.46V31.1ZM184.139 32.8H180.219V25.8C180.219 25.56 180.279 25.38 180.399 25.26C180.532 25.14 180.712 25.04 180.939 24.96C181.339 24.84 181.825 24.7533 182.399 24.7C182.972 24.6333 183.512 24.6 184.019 24.6C185.752 24.6 187.032 24.9667 187.859 25.7C188.685 26.4333 189.099 27.42 189.099 28.66C189.099 29.5 188.912 30.2333 188.539 30.86C188.165 31.4733 187.612 31.9533 186.879 32.3C186.145 32.6333 185.232 32.8 184.139 32.8ZM180.219 31.84H182.319V36.96C182.225 36.9867 182.092 37.02 181.919 37.06C181.745 37.1 181.559 37.12 181.359 37.12C180.959 37.12 180.665 37.0467 180.479 36.9C180.305 36.74 180.219 36.4867 180.219 36.14V31.84Z" fill="white"/>
<path d="M144.836 52.35C145.415 52.35 145.933 52.476 146.39 52.728C146.857 52.9707 147.221 53.344 147.482 53.848C147.753 54.352 147.888 54.9913 147.888 55.766C147.888 56.55 147.748 57.194 147.468 57.698C147.198 58.202 146.82 58.5753 146.334 58.818C145.849 59.0607 145.284 59.182 144.64 59.182C144.183 59.182 143.768 59.126 143.394 59.014C143.03 58.902 142.732 58.7807 142.498 58.65C142.302 58.5193 142.167 58.398 142.092 58.286C142.018 58.174 141.98 58.02 141.98 57.824V53.162H143.1V57.824C143.24 57.9267 143.446 58.0247 143.716 58.118C143.987 58.2113 144.295 58.258 144.64 58.258C145.275 58.258 145.784 58.0573 146.166 57.656C146.558 57.2547 146.754 56.6247 146.754 55.766C146.754 54.898 146.558 54.268 146.166 53.876C145.774 53.4747 145.275 53.274 144.668 53.274C144.295 53.274 143.964 53.3487 143.674 53.498C143.385 53.638 143.147 53.8013 142.96 53.988L142.75 53.078C142.956 52.9193 143.231 52.7607 143.576 52.602C143.922 52.434 144.342 52.35 144.836 52.35ZM143.1 53.386H141.98V49.928C142.027 49.9093 142.097 49.8907 142.19 49.872C142.293 49.844 142.4 49.83 142.512 49.83C142.708 49.83 142.853 49.872 142.946 49.956C143.049 50.0307 143.1 50.1567 143.1 50.334V53.386ZM155.642 55.766C155.642 56.4567 155.511 57.0587 155.25 57.572C154.989 58.0853 154.62 58.482 154.144 58.762C153.668 59.042 153.108 59.182 152.464 59.182C151.82 59.182 151.255 59.042 150.77 58.762C150.294 58.482 149.925 58.0853 149.664 57.572C149.403 57.0587 149.272 56.4567 149.272 55.766C149.272 55.066 149.403 54.464 149.664 53.96C149.935 53.4467 150.308 53.05 150.784 52.77C151.269 52.49 151.829 52.35 152.464 52.35C153.099 52.35 153.654 52.49 154.13 52.77C154.606 53.05 154.975 53.4467 155.236 53.96C155.507 54.464 155.642 55.066 155.642 55.766ZM152.464 53.274C151.839 53.274 151.339 53.498 150.966 53.946C150.602 54.3847 150.42 54.9913 150.42 55.766C150.42 56.55 150.597 57.1613 150.952 57.6C151.316 58.0387 151.82 58.258 152.464 58.258C153.099 58.258 153.593 58.0387 153.948 57.6C154.312 57.152 154.494 56.5407 154.494 55.766C154.494 54.9913 154.312 54.3847 153.948 53.946C153.593 53.498 153.099 53.274 152.464 53.274ZM157.276 50.488C157.276 50.292 157.346 50.1287 157.486 49.998C157.626 49.858 157.799 49.788 158.004 49.788C158.219 49.788 158.392 49.858 158.522 49.998C158.653 50.1287 158.718 50.292 158.718 50.488C158.718 50.684 158.653 50.852 158.522 50.992C158.392 51.1227 158.219 51.188 158.004 51.188C157.799 51.188 157.626 51.1227 157.486 50.992C157.346 50.852 157.276 50.684 157.276 50.488ZM157.444 55.304H158.564V58.972C158.518 58.9907 158.448 59.0093 158.354 59.028C158.261 59.056 158.158 59.07 158.046 59.07C157.85 59.07 157.701 59.0327 157.598 58.958C157.496 58.874 157.444 58.7433 157.444 58.566V55.304ZM158.564 55.85H157.444V52.56C157.491 52.5413 157.561 52.5227 157.654 52.504C157.757 52.476 157.864 52.462 157.976 52.462C158.172 52.462 158.317 52.504 158.41 52.588C158.513 52.6627 158.564 52.7933 158.564 52.98V55.85ZM165.315 57.278C165.315 57.8753 165.096 58.342 164.657 58.678C164.219 59.014 163.584 59.182 162.753 59.182C162.044 59.182 161.465 59.0747 161.017 58.86C160.569 58.636 160.345 58.3933 160.345 58.132C160.345 58.02 160.373 57.9127 160.429 57.81C160.495 57.698 160.588 57.6093 160.709 57.544C160.961 57.7213 161.255 57.8847 161.591 58.034C161.927 58.1833 162.31 58.258 162.739 58.258C163.71 58.258 164.195 57.9313 164.195 57.278C164.195 57.0073 164.111 56.788 163.943 56.62C163.785 56.4427 163.547 56.3167 163.229 56.242L162.067 55.934C161.498 55.794 161.083 55.5793 160.821 55.29C160.56 54.9913 160.429 54.6227 160.429 54.184C160.429 53.6893 160.63 53.26 161.031 52.896C161.433 52.532 162.044 52.35 162.865 52.35C163.304 52.35 163.687 52.3967 164.013 52.49C164.34 52.574 164.592 52.6907 164.769 52.84C164.956 52.98 165.049 53.134 165.049 53.302C165.049 53.4233 165.017 53.5307 164.951 53.624C164.895 53.7173 164.816 53.7873 164.713 53.834C164.601 53.7593 164.457 53.68 164.279 53.596C164.111 53.5027 163.911 53.428 163.677 53.372C163.444 53.3067 163.187 53.274 162.907 53.274C162.497 53.274 162.165 53.3533 161.913 53.512C161.661 53.6707 161.535 53.8947 161.535 54.184C161.535 54.3893 161.605 54.5713 161.745 54.73C161.895 54.8793 162.128 54.9913 162.445 55.066L163.411 55.304C164.046 55.4533 164.522 55.6913 164.839 56.018C165.157 56.3353 165.315 56.7553 165.315 57.278ZM171.577 57.278C171.577 57.8753 171.358 58.342 170.919 58.678C170.48 59.014 169.846 59.182 169.015 59.182C168.306 59.182 167.727 59.0747 167.279 58.86C166.831 58.636 166.607 58.3933 166.607 58.132C166.607 58.02 166.635 57.9127 166.691 57.81C166.756 57.698 166.85 57.6093 166.971 57.544C167.223 57.7213 167.517 57.8847 167.853 58.034C168.189 58.1833 168.572 58.258 169.001 58.258C169.972 58.258 170.457 57.9313 170.457 57.278C170.457 57.0073 170.373 56.788 170.205 56.62C170.046 56.4427 169.808 56.3167 169.491 56.242L168.329 55.934C167.76 55.794 167.344 55.5793 167.083 55.29C166.822 54.9913 166.691 54.6227 166.691 54.184C166.691 53.6893 166.892 53.26 167.293 52.896C167.694 52.532 168.306 52.35 169.127 52.35C169.566 52.35 169.948 52.3967 170.275 52.49C170.602 52.574 170.854 52.6907 171.031 52.84C171.218 52.98 171.311 53.134 171.311 53.302C171.311 53.4233 171.278 53.5307 171.213 53.624C171.157 53.7173 171.078 53.7873 170.975 53.834C170.863 53.7593 170.718 53.68 170.541 53.596C170.373 53.5027 170.172 53.428 169.939 53.372C169.706 53.3067 169.449 53.274 169.169 53.274C168.758 53.274 168.427 53.3533 168.175 53.512C167.923 53.6707 167.797 53.8947 167.797 54.184C167.797 54.3893 167.867 54.5713 168.007 54.73C168.156 54.8793 168.39 54.9913 168.707 55.066L169.673 55.304C170.308 55.4533 170.784 55.6913 171.101 56.018C171.418 56.3353 171.577 56.7553 171.577 57.278ZM179.349 55.766C179.349 56.4567 179.218 57.0587 178.957 57.572C178.696 58.0853 178.327 58.482 177.851 58.762C177.375 59.042 176.815 59.182 176.171 59.182C175.527 59.182 174.962 59.042 174.477 58.762C174.001 58.482 173.632 58.0853 173.371 57.572C173.11 57.0587 172.979 56.4567 172.979 55.766C172.979 55.066 173.11 54.464 173.371 53.96C173.642 53.4467 174.015 53.05 174.491 52.77C174.976 52.49 175.536 52.35 176.171 52.35C176.806 52.35 177.361 52.49 177.837 52.77C178.313 53.05 178.682 53.4467 178.943 53.96C179.214 54.464 179.349 55.066 179.349 55.766ZM176.171 53.274C175.546 53.274 175.046 53.498 174.673 53.946C174.309 54.3847 174.127 54.9913 174.127 55.766C174.127 56.55 174.304 57.1613 174.659 57.6C175.023 58.0387 175.527 58.258 176.171 58.258C176.806 58.258 177.3 58.0387 177.655 57.6C178.019 57.152 178.201 56.5407 178.201 55.766C178.201 54.9913 178.019 54.3847 177.655 53.946C177.3 53.498 176.806 53.274 176.171 53.274ZM186.681 54.73V56.158H185.561V54.786C185.561 54.2633 185.412 53.8807 185.113 53.638C184.824 53.3953 184.432 53.274 183.937 53.274C183.564 53.274 183.233 53.3207 182.943 53.414C182.654 53.5073 182.407 53.6147 182.201 53.736V56.158H181.081V53.792C181.081 53.596 181.119 53.4373 181.193 53.316C181.277 53.1853 181.417 53.0593 181.613 52.938C181.856 52.798 182.178 52.6673 182.579 52.546C182.981 52.4153 183.433 52.35 183.937 52.35C184.787 52.35 185.454 52.546 185.939 52.938C186.434 53.3207 186.681 53.918 186.681 54.73ZM181.081 55.388H182.201V58.972C182.155 58.9907 182.085 59.0093 181.991 59.028C181.898 59.056 181.795 59.07 181.683 59.07C181.487 59.07 181.338 59.0327 181.235 58.958C181.133 58.874 181.081 58.7433 181.081 58.566V55.388ZM185.561 55.388H186.681V58.972C186.635 58.9907 186.56 59.0093 186.457 59.028C186.364 59.056 186.266 59.07 186.163 59.07C185.958 59.07 185.804 59.0327 185.701 58.958C185.608 58.874 185.561 58.7433 185.561 58.566V55.388ZM193.343 57.278C193.343 57.8753 193.123 58.342 192.685 58.678C192.246 59.014 191.611 59.182 190.781 59.182C190.071 59.182 189.493 59.0747 189.045 58.86C188.597 58.636 188.373 58.3933 188.373 58.132C188.373 58.02 188.401 57.9127 188.457 57.81C188.522 57.698 188.615 57.6093 188.737 57.544C188.989 57.7213 189.283 57.8847 189.619 58.034C189.955 58.1833 190.337 58.258 190.767 58.258C191.737 58.258 192.223 57.9313 192.223 57.278C192.223 57.0073 192.139 56.788 191.971 56.62C191.812 56.4427 191.574 56.3167 191.257 56.242L190.095 55.934C189.525 55.794 189.11 55.5793 188.849 55.29C188.587 54.9913 188.457 54.6227 188.457 54.184C188.457 53.6893 188.657 53.26 189.059 52.896C189.46 52.532 190.071 52.35 190.893 52.35C191.331 52.35 191.714 52.3967 192.041 52.49C192.367 52.574 192.619 52.6907 192.797 52.84C192.983 52.98 193.077 53.134 193.077 53.302C193.077 53.4233 193.044 53.5307 192.979 53.624C192.923 53.7173 192.843 53.7873 192.741 53.834C192.629 53.7593 192.484 53.68 192.307 53.596C192.139 53.5027 191.938 53.428 191.705 53.372C191.471 53.3067 191.215 53.274 190.935 53.274C190.524 53.274 190.193 53.3533 189.941 53.512C189.689 53.6707 189.563 53.8947 189.563 54.184C189.563 54.3893 189.633 54.5713 189.773 54.73C189.922 54.8793 190.155 54.9913 190.473 55.066L191.439 55.304C192.073 55.4533 192.549 55.6913 192.867 56.018C193.184 56.3353 193.343 56.7553 193.343 57.278ZM203.919 57.572L203.513 58.048C203.196 58.3933 202.808 58.6733 202.351 58.888C201.894 59.1027 201.343 59.21 200.699 59.21C200.055 59.21 199.49 59.0933 199.005 58.86C198.529 58.6267 198.156 58.3 197.885 57.88C197.624 57.4507 197.493 56.9513 197.493 56.382C197.493 55.906 197.586 55.4907 197.773 55.136C197.969 54.772 198.23 54.4687 198.557 54.226C198.884 53.9833 199.248 53.8107 199.649 53.708L200.139 54.534C199.887 54.59 199.644 54.6973 199.411 54.856C199.187 55.0053 199 55.2107 198.851 55.472C198.702 55.724 198.627 56.032 198.627 56.396C198.627 56.956 198.809 57.4087 199.173 57.754C199.546 58.09 200.06 58.258 200.713 58.258C201.068 58.258 201.432 58.1833 201.805 58.034C202.188 57.8847 202.538 57.628 202.855 57.264L203.163 56.816C203.331 56.508 203.462 56.1207 203.555 55.654C203.658 55.1873 203.709 54.6553 203.709 54.058C203.793 54.0207 203.877 53.9927 203.961 53.974C204.054 53.946 204.143 53.932 204.227 53.932C204.414 53.932 204.554 53.988 204.647 54.1C204.74 54.2027 204.787 54.3567 204.787 54.562C204.787 55.0847 204.708 55.6213 204.549 56.172C204.4 56.7227 204.19 57.1893 203.919 57.572ZM204.703 59.196C204.516 59.196 204.33 59.0887 204.143 58.874L199.859 54.394L199.509 54.002C199.22 53.7033 199.005 53.414 198.865 53.134C198.725 52.8447 198.655 52.5367 198.655 52.21C198.655 51.8273 198.739 51.496 198.907 51.216C199.084 50.9267 199.336 50.7027 199.663 50.544C199.999 50.3853 200.405 50.306 200.881 50.306C201.376 50.306 201.749 50.376 202.001 50.516C202.262 50.656 202.393 50.8333 202.393 51.048C202.393 51.16 202.36 51.2627 202.295 51.356C202.239 51.44 202.174 51.5053 202.099 51.552C201.95 51.468 201.772 51.398 201.567 51.342C201.371 51.286 201.166 51.258 200.951 51.258C200.596 51.258 200.316 51.3467 200.111 51.524C199.906 51.692 199.803 51.9253 199.803 52.224C199.803 52.5133 199.878 52.77 200.027 52.994C200.176 53.218 200.391 53.4747 200.671 53.764L205.319 58.594C205.291 58.7807 205.226 58.9253 205.123 59.028C205.02 59.14 204.88 59.196 204.703 59.196ZM211.87 58.272C212.262 58.272 212.584 58.2347 212.836 58.16C213.097 58.076 213.284 57.9967 213.396 57.922V55.892L211.66 56.074C211.174 56.1113 210.815 56.2187 210.582 56.396C210.348 56.5733 210.232 56.83 210.232 57.166C210.232 57.5113 210.367 57.782 210.638 57.978C210.918 58.174 211.328 58.272 211.87 58.272ZM211.856 52.35C212.668 52.35 213.312 52.532 213.788 52.896C214.264 53.26 214.502 53.834 214.502 54.618V57.936C214.502 58.1413 214.46 58.3 214.376 58.412C214.301 58.5147 214.184 58.6127 214.026 58.706C213.802 58.8273 213.503 58.9393 213.13 59.042C212.756 59.1447 212.336 59.196 211.87 59.196C210.992 59.196 210.311 59.0233 209.826 58.678C209.35 58.3327 209.112 57.8333 209.112 57.18C209.112 56.5733 209.312 56.1113 209.714 55.794C210.124 55.4673 210.689 55.2713 211.408 55.206L213.396 55.01V54.618C213.396 54.1513 213.256 53.8107 212.976 53.596C212.696 53.3813 212.318 53.274 211.842 53.274C211.459 53.274 211.09 53.33 210.736 53.442C210.39 53.554 210.082 53.68 209.812 53.82C209.737 53.7547 209.667 53.68 209.602 53.596C209.546 53.5027 209.518 53.4093 209.518 53.316C209.518 53.0733 209.653 52.8867 209.924 52.756C210.176 52.6253 210.465 52.5273 210.792 52.462C211.128 52.3873 211.482 52.35 211.856 52.35ZM219.542 53.288C218.907 53.288 218.38 53.5027 217.96 53.932C217.54 54.3613 217.33 54.9773 217.33 55.78C217.33 56.5733 217.531 57.1847 217.932 57.614C218.343 58.0433 218.879 58.258 219.542 58.258C219.934 58.258 220.261 58.2067 220.522 58.104C220.783 57.992 221.017 57.866 221.222 57.726C221.325 57.782 221.409 57.852 221.474 57.936C221.539 58.02 221.572 58.1227 221.572 58.244C221.572 58.5053 221.376 58.7293 220.984 58.916C220.601 59.0933 220.121 59.182 219.542 59.182C218.898 59.182 218.319 59.0607 217.806 58.818C217.302 58.566 216.905 58.188 216.616 57.684C216.327 57.18 216.182 56.5453 216.182 55.78C216.182 55.024 216.331 54.394 216.63 53.89C216.929 53.3767 217.33 52.994 217.834 52.742C218.347 52.4807 218.907 52.35 219.514 52.35C220.093 52.35 220.569 52.448 220.942 52.644C221.325 52.84 221.516 53.064 221.516 53.316C221.516 53.428 221.483 53.526 221.418 53.61C221.353 53.694 221.269 53.7593 221.166 53.806C220.961 53.666 220.732 53.5447 220.48 53.442C220.237 53.3393 219.925 53.288 219.542 53.288ZM226.064 53.288C225.429 53.288 224.902 53.5027 224.482 53.932C224.062 54.3613 223.852 54.9773 223.852 55.78C223.852 56.5733 224.052 57.1847 224.454 57.614C224.864 58.0433 225.401 58.258 226.064 58.258C226.456 58.258 226.782 58.2067 227.044 58.104C227.305 57.992 227.538 57.866 227.744 57.726C227.846 57.782 227.93 57.852 227.996 57.936C228.061 58.02 228.094 58.1227 228.094 58.244C228.094 58.5053 227.898 58.7293 227.506 58.916C227.123 59.0933 226.642 59.182 226.064 59.182C225.42 59.182 224.841 59.0607 224.328 58.818C223.824 58.566 223.427 58.188 223.138 57.684C222.848 57.18 222.704 56.5453 222.704 55.78C222.704 55.024 222.853 54.394 223.152 53.89C223.45 53.3767 223.852 52.994 224.356 52.742C224.869 52.4807 225.429 52.35 226.036 52.35C226.614 52.35 227.09 52.448 227.464 52.644C227.846 52.84 228.038 53.064 228.038 53.316C228.038 53.428 228.005 53.526 227.94 53.61C227.874 53.694 227.79 53.7593 227.688 53.806C227.482 53.666 227.254 53.5447 227.002 53.442C226.759 53.3393 226.446 53.288 226.064 53.288ZM229.995 56.48L229.939 55.598L234.167 55.024C234.13 54.5107 233.952 54.0907 233.635 53.764C233.318 53.428 232.879 53.26 232.319 53.26C231.74 53.26 231.26 53.47 230.877 53.89C230.504 54.3007 230.317 54.8933 230.317 55.668V55.976C230.382 56.7227 230.625 57.292 231.045 57.684C231.474 58.0667 232.058 58.258 232.795 58.258C233.187 58.258 233.542 58.1927 233.859 58.062C234.176 57.9313 234.428 57.7913 234.615 57.642C234.718 57.7073 234.797 57.7867 234.853 57.88C234.918 57.964 234.951 58.062 234.951 58.174C234.951 58.3513 234.848 58.5193 234.643 58.678C234.447 58.8273 234.181 58.9487 233.845 59.042C233.518 59.1353 233.15 59.182 232.739 59.182C232.02 59.182 231.395 59.0513 230.863 58.79C230.34 58.5287 229.934 58.1413 229.645 57.628C229.365 57.1053 229.225 56.4707 229.225 55.724C229.225 55.192 229.3 54.7207 229.449 54.31C229.608 53.89 229.822 53.5353 230.093 53.246C230.373 52.9567 230.704 52.7373 231.087 52.588C231.47 52.4293 231.885 52.35 232.333 52.35C232.902 52.35 233.402 52.4713 233.831 52.714C234.27 52.9567 234.61 53.2973 234.853 53.736C235.105 54.1653 235.231 54.66 235.231 55.22C235.231 55.4253 235.184 55.5747 235.091 55.668C234.998 55.752 234.867 55.8033 234.699 55.822L229.995 56.48ZM241.495 57.278C241.495 57.8753 241.276 58.342 240.837 58.678C240.398 59.014 239.764 59.182 238.933 59.182C238.224 59.182 237.645 59.0747 237.197 58.86C236.749 58.636 236.525 58.3933 236.525 58.132C236.525 58.02 236.553 57.9127 236.609 57.81C236.674 57.698 236.768 57.6093 236.889 57.544C237.141 57.7213 237.435 57.8847 237.771 58.034C238.107 58.1833 238.49 58.258 238.919 58.258C239.89 58.258 240.375 57.9313 240.375 57.278C240.375 57.0073 240.291 56.788 240.123 56.62C239.964 56.4427 239.726 56.3167 239.409 56.242L238.247 55.934C237.678 55.794 237.262 55.5793 237.001 55.29C236.74 54.9913 236.609 54.6227 236.609 54.184C236.609 53.6893 236.81 53.26 237.211 52.896C237.612 52.532 238.224 52.35 239.045 52.35C239.484 52.35 239.866 52.3967 240.193 52.49C240.52 52.574 240.772 52.6907 240.949 52.84C241.136 52.98 241.229 53.134 241.229 53.302C241.229 53.4233 241.196 53.5307 241.131 53.624C241.075 53.7173 240.996 53.7873 240.893 53.834C240.781 53.7593 240.636 53.68 240.459 53.596C240.291 53.5027 240.09 53.428 239.857 53.372C239.624 53.3067 239.367 53.274 239.087 53.274C238.676 53.274 238.345 53.3533 238.093 53.512C237.841 53.6707 237.715 53.8947 237.715 54.184C237.715 54.3893 237.785 54.5713 237.925 54.73C238.074 54.8793 238.308 54.9913 238.625 55.066L239.591 55.304C240.226 55.4533 240.702 55.6913 241.019 56.018C241.336 56.3353 241.495 56.7553 241.495 57.278ZM247.757 57.278C247.757 57.8753 247.537 58.342 247.099 58.678C246.66 59.014 246.025 59.182 245.195 59.182C244.485 59.182 243.907 59.0747 243.459 58.86C243.011 58.636 242.787 58.3933 242.787 58.132C242.787 58.02 242.815 57.9127 242.871 57.81C242.936 57.698 243.029 57.6093 243.151 57.544C243.403 57.7213 243.697 57.8847 244.033 58.034C244.369 58.1833 244.751 58.258 245.181 58.258C246.151 58.258 246.637 57.9313 246.637 57.278C246.637 57.0073 246.553 56.788 246.385 56.62C246.226 56.4427 245.988 56.3167 245.671 56.242L244.509 55.934C243.939 55.794 243.524 55.5793 243.263 55.29C243.001 54.9913 242.871 54.6227 242.871 54.184C242.871 53.6893 243.071 53.26 243.473 52.896C243.874 52.532 244.485 52.35 245.307 52.35C245.745 52.35 246.128 52.3967 246.455 52.49C246.781 52.574 247.033 52.6907 247.211 52.84C247.397 52.98 247.491 53.134 247.491 53.302C247.491 53.4233 247.458 53.5307 247.393 53.624C247.337 53.7173 247.257 53.7873 247.155 53.834C247.043 53.7593 246.898 53.68 246.721 53.596C246.553 53.5027 246.352 53.428 246.119 53.372C245.885 53.3067 245.629 53.274 245.349 53.274C244.938 53.274 244.607 53.3533 244.355 53.512C244.103 53.6707 243.977 53.8947 243.977 54.184C243.977 54.3893 244.047 54.5713 244.187 54.73C244.336 54.8793 244.569 54.9913 244.887 55.066L245.853 55.304C246.487 55.4533 246.963 55.6913 247.281 56.018C247.598 56.3353 247.757 56.7553 247.757 57.278ZM255.529 55.766C255.529 56.4567 255.398 57.0587 255.137 57.572C254.875 58.0853 254.507 58.482 254.031 58.762C253.555 59.042 252.995 59.182 252.351 59.182C251.707 59.182 251.142 59.042 250.657 58.762C250.181 58.482 249.812 58.0853 249.551 57.572C249.289 57.0587 249.159 56.4567 249.159 55.766C249.159 55.066 249.289 54.464 249.551 53.96C249.821 53.4467 250.195 53.05 250.671 52.77C251.156 52.49 251.716 52.35 252.351 52.35C252.985 52.35 253.541 52.49 254.017 52.77C254.493 53.05 254.861 53.4467 255.123 53.96C255.393 54.464 255.529 55.066 255.529 55.766ZM252.351 53.274C251.725 53.274 251.226 53.498 250.853 53.946C250.489 54.3847 250.307 54.9913 250.307 55.766C250.307 56.55 250.484 57.1613 250.839 57.6C251.203 58.0387 251.707 58.258 252.351 58.258C252.985 58.258 253.48 58.0387 253.835 57.6C254.199 57.152 254.381 56.5407 254.381 55.766C254.381 54.9913 254.199 54.3847 253.835 53.946C253.48 53.498 252.985 53.274 252.351 53.274ZM257.163 50.488C257.163 50.292 257.233 50.1287 257.373 49.998C257.513 49.858 257.686 49.788 257.891 49.788C258.106 49.788 258.278 49.858 258.409 49.998C258.54 50.1287 258.605 50.292 258.605 50.488C258.605 50.684 258.54 50.852 258.409 50.992C258.278 51.1227 258.106 51.188 257.891 51.188C257.686 51.188 257.513 51.1227 257.373 50.992C257.233 50.852 257.163 50.684 257.163 50.488ZM257.331 55.304H258.451V58.972C258.404 58.9907 258.334 59.0093 258.241 59.028C258.148 59.056 258.045 59.07 257.933 59.07C257.737 59.07 257.588 59.0327 257.485 58.958C257.382 58.874 257.331 58.7433 257.331 58.566V55.304ZM258.451 55.85H257.331V52.56C257.378 52.5413 257.448 52.5227 257.541 52.504C257.644 52.476 257.751 52.462 257.863 52.462C258.059 52.462 258.204 52.504 258.297 52.588C258.4 52.6627 258.451 52.7933 258.451 52.98V55.85ZM261.758 53.736V55.948H260.638V53.82C260.638 53.6053 260.675 53.4373 260.75 53.316C260.834 53.1853 260.969 53.0593 261.156 52.938C261.399 52.7793 261.73 52.644 262.15 52.532C262.57 52.4107 263.037 52.35 263.55 52.35C264.297 52.35 264.67 52.5367 264.67 52.91C264.67 53.0033 264.656 53.092 264.628 53.176C264.6 53.2507 264.563 53.316 264.516 53.372C264.423 53.3533 264.301 53.3347 264.152 53.316C264.003 53.2973 263.853 53.288 263.704 53.288C263.275 53.288 262.897 53.3347 262.57 53.428C262.243 53.512 261.973 53.6147 261.758 53.736ZM260.638 55.304L261.758 55.472V58.972C261.711 58.9907 261.641 59.0093 261.548 59.028C261.455 59.056 261.352 59.07 261.24 59.07C261.044 59.07 260.895 59.0327 260.792 58.958C260.689 58.874 260.638 58.7433 260.638 58.566V55.304ZM270.548 57.278C270.548 57.8753 270.328 58.342 269.89 58.678C269.451 59.014 268.816 59.182 267.986 59.182C267.276 59.182 266.698 59.0747 266.25 58.86C265.802 58.636 265.578 58.3933 265.578 58.132C265.578 58.02 265.606 57.9127 265.662 57.81C265.727 57.698 265.82 57.6093 265.942 57.544C266.194 57.7213 266.488 57.8847 266.824 58.034C267.16 58.1833 267.542 58.258 267.972 58.258C268.942 58.258 269.428 57.9313 269.428 57.278C269.428 57.0073 269.344 56.788 269.176 56.62C269.017 56.4427 268.779 56.3167 268.462 56.242L267.3 55.934C266.73 55.794 266.315 55.5793 266.054 55.29C265.792 54.9913 265.662 54.6227 265.662 54.184C265.662 53.6893 265.862 53.26 266.264 52.896C266.665 52.532 267.276 52.35 268.098 52.35C268.536 52.35 268.919 52.3967 269.246 52.49C269.572 52.574 269.824 52.6907 270.002 52.84C270.188 52.98 270.282 53.134 270.282 53.302C270.282 53.4233 270.249 53.5307 270.184 53.624C270.128 53.7173 270.048 53.7873 269.946 53.834C269.834 53.7593 269.689 53.68 269.512 53.596C269.344 53.5027 269.143 53.428 268.91 53.372C268.676 53.3067 268.42 53.274 268.14 53.274C267.729 53.274 267.398 53.3533 267.146 53.512C266.894 53.6707 266.768 53.8947 266.768 54.184C266.768 54.3893 266.838 54.5713 266.978 54.73C267.127 54.8793 267.36 54.9913 267.678 55.066L268.644 55.304C269.278 55.4533 269.754 55.6913 270.072 56.018C270.389 56.3353 270.548 56.7553 270.548 57.278Z" fill="#CCCCCC"/>
<rect x="-9" y="-14" width="118" height="138" rx="36" fill="url(#paint0_linear_275_1776)"/>
<path d="M21.4648 43.2085H87.2958V75.6668H21.4648V43.2085Z" fill="#AC7B5B"/>
<path d="M21.4648 75.6665H87.2958V82.4998H21.4648V75.6665Z" fill="#845738"/>
<path d="M59.5781 51.75H80.3669V82.5H59.5781V51.75Z" fill="#778689"/>
<path d="M28.3945 51.75H52.6481V70.5417H28.3945V51.75Z" fill="#84837E"/>
<path d="M30.125 53.4585H50.9137V68.8335H30.125V53.4585Z" fill="#F0F0F0"/>
<path d="M76.0342 67.979C75.5144 67.979 75.168 68.3207 75.168 68.8332V72.2498C75.168 72.7623 75.5144 73.104 76.0342 73.104C76.5539 73.104 76.9004 72.7623 76.9004 72.2498V68.8332C76.9004 68.3207 76.5539 67.979 76.0342 67.979Z" fill="#90A4AE"/>
<path d="M54.3808 48.3335C57.2511 48.3335 59.578 46.039 59.578 43.2085C59.578 40.378 57.2511 38.0835 54.3808 38.0835C51.5105 38.0835 49.1836 40.378 49.1836 43.2085C49.1836 46.039 51.5105 48.3335 54.3808 48.3335Z" fill="#1B7566"/>
<path d="M75.1698 48.3335C78.0402 48.3335 80.367 46.039 80.367 43.2085C80.367 40.378 78.0402 38.0835 75.1698 38.0835C72.2995 38.0835 69.9727 40.378 69.9727 43.2085C69.9727 46.039 72.2995 48.3335 75.1698 48.3335Z" fill="#1B7566"/>
<path d="M33.5917 48.3335C36.462 48.3335 38.7889 46.039 38.7889 43.2085C38.7889 40.378 36.462 38.0835 33.5917 38.0835C30.7214 38.0835 28.3945 40.378 28.3945 43.2085C28.3945 46.039 30.7214 48.3335 33.5917 48.3335Z" fill="#1B7566"/>
<path d="M82.0987 21H26.6621C24.7564 21 23.1973 22.5375 23.1973 24.4167V29.5417H85.5635V24.4167C85.5635 22.5375 84.0043 21 82.0987 21ZM49.1832 29.5417H59.5775V43.2083H49.1832V29.5417ZM76.9015 29.5417H68.2395L69.9719 43.2083H80.3663L76.9015 29.5417ZM31.8592 29.5417H40.5212L38.7888 43.2083H28.3944L31.8592 29.5417Z" fill="#228C88"/>
<path d="M64.7753 48.3335C67.6456 48.3335 69.9725 46.039 69.9725 43.2085C69.9725 40.378 67.6456 38.0835 64.7753 38.0835C61.905 38.0835 59.5781 40.378 59.5781 43.2085C59.5781 46.039 61.905 48.3335 64.7753 48.3335Z" fill="#E48434"/>
<path d="M90.7596 43.2085C90.7596 46.1127 88.5075 48.3335 85.5624 48.3335C82.6173 48.3335 80.3652 46.1127 80.3652 43.2085C80.3652 40.3043 82.6173 38.0835 85.5624 38.0835L90.7596 43.2085Z" fill="#E48434"/>
<path d="M43.9862 48.3335C46.8566 48.3335 49.1834 46.039 49.1834 43.2085C49.1834 40.378 46.8566 38.0835 43.9862 38.0835C41.1159 38.0835 38.7891 40.378 38.7891 43.2085C38.7891 46.039 41.1159 48.3335 43.9862 48.3335Z" fill="#E48434"/>
<path d="M18 43.2085C18 46.1127 20.2521 48.3335 23.1972 48.3335C26.1423 48.3335 28.3944 46.1127 28.3944 43.2085C28.3944 40.3043 26.1423 38.0835 23.1972 38.0835L18 43.2085Z" fill="#E48434"/>
<path d="M68.2394 29.5415H59.5775V43.2082H69.9718L68.2394 29.5415ZM85.5634 29.5415H76.9014L80.3662 43.2082H90.7606L85.5634 29.5415ZM40.5211 29.5415H49.1831V43.2082H38.7887L40.5211 29.5415ZM23.1972 29.5415H31.8592L28.3944 43.2082H18L23.1972 29.5415Z" fill="#F59A51"/>
<path d="M143.535 82.203H148.228V83.321H143.535V82.203ZM143.665 87H142.365V77.9H148.787V79.031H143.665V87ZM153.118 87.078C152.529 87.078 152.009 86.9697 151.558 86.753C151.116 86.5363 150.769 86.207 150.518 85.765C150.275 85.3143 150.154 84.751 150.154 84.075V80.11H151.402V83.932C151.402 84.608 151.562 85.115 151.883 85.453C152.212 85.791 152.672 85.96 153.261 85.96C153.694 85.96 154.071 85.8733 154.392 85.7C154.713 85.518 154.96 85.258 155.133 84.92C155.306 84.5733 155.393 84.1573 155.393 83.672V80.11H156.641V87H155.458V85.141L155.653 85.635C155.428 86.0943 155.09 86.4497 154.639 86.701C154.188 86.9523 153.681 87.078 153.118 87.078ZM151.077 79.109L152.806 77.419H154.002L155.731 79.109H154.6L152.884 77.679H153.924L152.208 79.109H151.077ZM161.383 87.078C160.69 87.078 160.152 86.8917 159.771 86.519C159.39 86.1463 159.199 85.6133 159.199 84.92V78.602H160.447V84.868C160.447 85.2407 160.538 85.5267 160.72 85.726C160.911 85.9253 161.179 86.025 161.526 86.025C161.916 86.025 162.241 85.9167 162.501 85.7L162.891 86.597C162.7 86.7617 162.471 86.883 162.202 86.961C161.942 87.039 161.669 87.078 161.383 87.078ZM158.029 81.137V80.11H162.423V81.137H158.029ZM170.738 87.078C170.071 87.078 169.473 86.9307 168.944 86.636C168.424 86.3413 168.012 85.9297 167.709 85.401C167.406 84.8723 167.254 84.257 167.254 83.555C167.254 82.853 167.406 82.242 167.709 81.722C168.012 81.1933 168.424 80.7817 168.944 80.487C169.473 80.1923 170.071 80.045 170.738 80.045C171.319 80.045 171.843 80.175 172.311 80.435C172.779 80.695 173.152 81.085 173.429 81.605C173.715 82.125 173.858 82.775 173.858 83.555C173.858 84.335 173.719 84.985 173.442 85.505C173.173 86.025 172.805 86.4193 172.337 86.688C171.869 86.948 171.336 87.078 170.738 87.078ZM170.842 85.986C171.275 85.986 171.665 85.8863 172.012 85.687C172.367 85.4877 172.645 85.206 172.844 84.842C173.052 84.4693 173.156 84.0403 173.156 83.555C173.156 83.061 173.052 82.6363 172.844 82.281C172.645 81.917 172.367 81.6353 172.012 81.436C171.665 81.2367 171.275 81.137 170.842 81.137C170.4 81.137 170.006 81.2367 169.659 81.436C169.312 81.6353 169.035 81.917 168.827 82.281C168.619 82.6363 168.515 83.061 168.515 83.555C168.515 84.0403 168.619 84.4693 168.827 84.842C169.035 85.206 169.312 85.4877 169.659 85.687C170.006 85.8863 170.4 85.986 170.842 85.986ZM173.195 87V85.141L173.273 83.542L173.143 81.943V77.354H174.391V87H173.195ZM179.82 87.078C179.084 87.078 178.434 86.9263 177.87 86.623C177.316 86.3197 176.882 85.9037 176.57 85.375C176.267 84.8463 176.115 84.2397 176.115 83.555C176.115 82.8703 176.263 82.2637 176.557 81.735C176.861 81.2063 177.272 80.7947 177.792 80.5C178.321 80.1967 178.915 80.045 179.573 80.045C180.241 80.045 180.83 80.1923 181.341 80.487C181.853 80.7817 182.251 81.1977 182.537 81.735C182.832 82.2637 182.979 82.8833 182.979 83.594C182.979 83.646 182.975 83.7067 182.966 83.776C182.966 83.8453 182.962 83.9103 182.953 83.971H177.09V83.074H182.303L181.796 83.386C181.805 82.944 181.714 82.5497 181.523 82.203C181.333 81.8563 181.068 81.5877 180.73 81.397C180.401 81.1977 180.015 81.098 179.573 81.098C179.14 81.098 178.754 81.1977 178.416 81.397C178.078 81.5877 177.814 81.8607 177.623 82.216C177.433 82.5627 177.337 82.9613 177.337 83.412V83.62C177.337 84.0793 177.441 84.491 177.649 84.855C177.866 85.2103 178.165 85.4877 178.546 85.687C178.928 85.8863 179.365 85.986 179.859 85.986C180.267 85.986 180.635 85.9167 180.964 85.778C181.302 85.6393 181.597 85.4313 181.848 85.154L182.537 85.96C182.225 86.324 181.835 86.6013 181.367 86.792C180.908 86.9827 180.392 87.078 179.82 87.078ZM187.502 87V86.116L191.207 82.541C191.536 82.229 191.779 81.956 191.935 81.722C192.099 81.4793 192.208 81.2583 192.26 81.059C192.32 80.851 192.351 80.6517 192.351 80.461C192.351 79.993 192.186 79.6247 191.857 79.356C191.527 79.0873 191.046 78.953 190.414 78.953C189.928 78.953 189.491 79.0353 189.101 79.2C188.711 79.356 188.373 79.603 188.087 79.941L187.203 79.174C187.549 78.732 188.013 78.394 188.594 78.16C189.183 77.9173 189.829 77.796 190.531 77.796C191.163 77.796 191.714 77.9 192.182 78.108C192.65 78.3073 193.009 78.5977 193.261 78.979C193.521 79.3603 193.651 79.811 193.651 80.331C193.651 80.6257 193.612 80.916 193.534 81.202C193.456 81.488 193.308 81.7913 193.092 82.112C192.875 82.4327 192.563 82.7923 192.156 83.191L188.854 86.376L188.542 85.869H194.041V87H187.502ZM198.815 87.104C198.104 87.104 197.467 86.922 196.904 86.558C196.349 86.194 195.907 85.6653 195.578 84.972C195.257 84.2787 195.097 83.438 195.097 82.45C195.097 81.462 195.257 80.6213 195.578 79.928C195.907 79.2347 196.349 78.706 196.904 78.342C197.467 77.978 198.104 77.796 198.815 77.796C199.517 77.796 200.149 77.978 200.713 78.342C201.276 78.706 201.718 79.2347 202.039 79.928C202.359 80.6213 202.52 81.462 202.52 82.45C202.52 83.438 202.359 84.2787 202.039 84.972C201.718 85.6653 201.276 86.194 200.713 86.558C200.149 86.922 199.517 87.104 198.815 87.104ZM198.815 85.947C199.291 85.947 199.707 85.817 200.063 85.557C200.427 85.297 200.708 84.907 200.908 84.387C201.116 83.867 201.22 83.2213 201.22 82.45C201.22 81.6787 201.116 81.033 200.908 80.513C200.708 79.993 200.427 79.603 200.063 79.343C199.707 79.083 199.291 78.953 198.815 78.953C198.338 78.953 197.918 79.083 197.554 79.343C197.19 79.603 196.904 79.993 196.696 80.513C196.496 81.033 196.397 81.6787 196.397 82.45C196.397 83.2213 196.496 83.867 196.696 84.387C196.904 84.907 197.19 85.297 197.554 85.557C197.918 85.817 198.338 85.947 198.815 85.947ZM207.376 83.971V82.892H210.873V83.971H207.376ZM218.509 87.104C217.867 87.104 217.243 87.0043 216.637 86.805C216.039 86.6057 215.549 86.337 215.168 85.999L215.766 84.972C216.069 85.258 216.463 85.492 216.949 85.674C217.434 85.856 217.954 85.947 218.509 85.947C219.185 85.947 219.709 85.804 220.082 85.518C220.463 85.2233 220.654 84.829 220.654 84.335C220.654 83.8583 220.472 83.477 220.108 83.191C219.752 82.8963 219.185 82.749 218.405 82.749H217.677V81.839L220.381 78.511L220.563 79.031H215.584V77.9H221.59V78.784L218.899 82.099L218.223 81.696H218.652C219.752 81.696 220.576 81.943 221.122 82.437C221.676 82.931 221.954 83.5593 221.954 84.322C221.954 84.8333 221.828 85.3013 221.577 85.726C221.325 86.1507 220.944 86.4887 220.433 86.74C219.93 86.9827 219.289 87.104 218.509 87.104ZM226.884 87.104C226.173 87.104 225.536 86.922 224.973 86.558C224.418 86.194 223.976 85.6653 223.647 84.972C223.326 84.2787 223.166 83.438 223.166 82.45C223.166 81.462 223.326 80.6213 223.647 79.928C223.976 79.2347 224.418 78.706 224.973 78.342C225.536 77.978 226.173 77.796 226.884 77.796C227.586 77.796 228.219 77.978 228.782 78.342C229.345 78.706 229.787 79.2347 230.108 79.928C230.429 80.6213 230.589 81.462 230.589 82.45C230.589 83.438 230.429 84.2787 230.108 84.972C229.787 85.6653 229.345 86.194 228.782 86.558C228.219 86.922 227.586 87.104 226.884 87.104ZM226.884 85.947C227.361 85.947 227.777 85.817 228.132 85.557C228.496 85.297 228.778 84.907 228.977 84.387C229.185 83.867 229.289 83.2213 229.289 82.45C229.289 81.6787 229.185 81.033 228.977 80.513C228.778 79.993 228.496 79.603 228.132 79.343C227.777 79.083 227.361 78.953 226.884 78.953C226.407 78.953 225.987 79.083 225.623 79.343C225.259 79.603 224.973 79.993 224.765 80.513C224.566 81.033 224.466 81.6787 224.466 82.45C224.466 83.2213 224.566 83.867 224.765 84.387C224.973 84.907 225.259 85.297 225.623 85.557C225.987 85.817 226.407 85.947 226.884 85.947ZM232.578 87V77.9H233.878V85.869H238.805V87H232.578Z" fill="#979797"/>
</g>
</g>
<defs>
<filter id="filter0_dd_275_1776" x="0" y="0" width="364" height="125" filterUnits="userSpaceOnUse" color-interpolation-filters="sRGB">
<feFlood flood-opacity="0" result="BackgroundImageFix"/>
<feColorMatrix in="SourceAlpha" type="matrix" values="0 0 0 0 0 0 0 0 0 0 0 0 0 0 0 0 0 0 127 0" result="hardAlpha"/>
<feOffset dy="4"/>
<feGaussianBlur stdDeviation="2"/>
<feComposite in2="hardAlpha" operator="out"/>
<feColorMatrix type="matrix" values="0 0 0 0 0 0 0 0 0 0 0 0 0 0 0 0 0 0 0.25 0"/>
<feBlend mode="normal" in2="BackgroundImageFix" result="effect1_dropShadow_275_1776"/>
<feColorMatrix in="SourceAlpha" type="matrix" values="0 0 0 0 0 0 0 0 0 0 0 0 0 0 0 0 0 0 127 0" result="hardAlpha"/>
<feOffset dy="4"/>
<feGaussianBlur stdDeviation="2"/>
<feComposite in2="hardAlpha" operator="out"/>
<feColorMatrix type="matrix" values="0 0 0 0 0 0 0 0 0 0 0 0 0 0 0 0 0 0 0.25 0"/>
<feBlend mode="normal" in2="effect1_dropShadow_275_1776" result="effect2_dropShadow_275_1776"/>
<feBlend mode="normal" in="SourceGraphic" in2="effect2_dropShadow_275_1776" result="shape"/>
</filter>
<linearGradient id="paint0_linear_275_1776" x1="50" y1="-14" x2="50" y2="124" gradientUnits="userSpaceOnUse">
<stop stop-color="#5C8C9C"/>
<stop offset="1" stop-color="#D9D9D9" stop-opacity="0"/>
</linearGradient>
<clipPath id="clip0_275_1776">
<rect x="4" width="356" height="117" rx="7" fill="white"/>
</clipPath>
</defs>
</svg>
