<svg width="111" height="105" viewBox="0 0 111 105" fill="none" xmlns="http://www.w3.org/2000/svg">
<g id="abii 3">
<path id="soleil" d="M45.3862 23.8865C46.6492 23.2984 48.7542 22.5842 50.0171 22.2482C51.4906 21.8701 53.9324 21.7441 56.753 21.8281C60.2052 21.9121 61.847 22.2062 64.3309 23.0463C66.0569 23.6765 68.5408 24.8947 69.8038 25.7348C71.0668 26.575 73.0454 28.2553 74.2242 29.4316C75.3609 30.6498 77.0028 32.9182 77.8868 34.5145C78.7288 36.1108 79.6971 38.4633 80.076 39.7235C80.4128 40.9838 80.8338 43.0842 81.2548 46.6548L77.5079 46.9909C75.4872 47.2009 72.456 47.621 70.8563 47.9571C69.2565 48.2931 66.52 49.0493 64.8782 49.5954C63.1942 50.1835 60.4577 51.3177 55.911 53.5862L53.3009 52.2839C51.8274 51.5278 49.4277 50.4776 47.9122 49.9315C46.3966 49.3433 43.5338 48.5452 41.5131 48.0831C39.4502 47.663 36.2086 47.1589 30.6094 46.6548L30.862 44.3444C31.0304 43.0842 31.4093 40.9838 31.7882 39.7235C32.1249 38.4633 32.9669 36.3629 33.5984 35.1026C34.2299 33.8424 35.5771 31.784 36.5875 30.6078C37.5979 29.3895 39.4923 27.5832 40.7553 26.659C42.0183 25.6928 44.1232 24.4326 45.3862 23.8865Z" fill="#F49A50"/>
<g id="roue">
<path id="Vector" d="M62.1796 101.856C61.7165 102.486 60.8745 103.075 60.3694 103.159C59.8642 103.285 56.9172 103.327 53.844 103.327L53.825 103.326C48.2867 103.243 48.2015 103.241 47.1923 102.108C46.645 101.436 46.1819 100.554 46.1819 100.092C46.1819 99.63 45.9293 98.7898 45.6346 98.2017C45.382 97.6136 44.8347 97.0255 44.4979 96.8994C44.1611 96.7734 42.5193 96.1853 40.9195 95.5972C39.3197 95.0091 36.878 94.0009 35.5308 93.3288C34.2257 92.6566 32.7522 92.1105 32.2892 92.1105C31.8261 92.1105 30.7315 92.5726 29.8474 93.1607C29.0054 93.7488 28.0371 94.2109 27.7424 94.2109C27.4898 94.2109 26.8162 94.0429 26.269 93.8328C25.7638 93.6228 24.2061 92.4466 22.8589 91.1863C21.4696 89.9681 19.6173 88.0778 18.7332 86.9855C17.6386 85.5993 17.1334 84.5491 17.1334 83.6249C17.0913 82.8688 17.4702 81.7765 17.8912 81.1884C18.3122 80.6003 18.8174 79.8022 18.9437 79.4241C19.1121 78.962 18.6069 77.3657 17.5965 75.2233C16.7124 73.2909 15.5757 70.4764 15.0706 68.8801C14.5654 67.2838 13.8497 65.8975 13.4287 65.6875C13.0498 65.5194 11.9973 65.2254 11.1132 65.0574C10.1028 64.8893 9.26086 64.4272 8.71357 63.6711C8.12418 62.8309 7.78738 61.5287 7.61899 59.1342C7.49269 57.2859 7.49268 54.8494 7.95578 51.5728L10.9448 52.707C12.6288 53.2951 15.1127 54.1353 19.0279 55.2275L19.3226 58.8402C19.4489 60.8566 19.912 63.7131 20.2909 65.2254C20.6698 66.7377 21.7222 69.5522 22.6484 71.5266C23.5746 73.501 25.427 76.4835 26.732 78.2059C28.0371 79.9282 30.1842 82.1966 31.4472 83.2888C32.7101 84.339 35.1098 85.9774 36.7096 86.9435C38.3093 87.9097 41.4668 89.338 43.6559 90.0941C47.5712 91.4384 47.8238 91.4804 54.6018 91.4804C61.3797 91.4804 61.6323 91.4384 65.5476 90.0941C67.7367 89.338 70.7679 87.9937 72.2834 87.1116C73.799 86.1874 76.1566 84.5491 77.5037 83.4569C78.8509 82.3227 80.998 80.0962 82.3031 78.4579C83.566 76.8616 85.3763 73.837 86.3867 71.7366C87.3971 69.6362 88.4917 66.7377 88.8705 65.2254C89.2494 63.7131 89.6704 60.8986 90.0493 55.3535L93.291 54.3873C95.0591 53.8832 97.5009 52.9591 98.6797 52.4129C100.743 51.4468 100.953 51.4048 101.206 52.1189C101.416 52.497 101.5 55.0174 101.458 57.664C101.416 61.6967 101.248 62.6629 100.574 63.5451C100.111 64.1752 99.0165 64.7633 97.9219 65.0574C96.9115 65.3094 95.8169 65.6455 95.5222 65.7715C95.2696 65.9395 94.596 67.3258 94.133 68.8801C93.6278 70.4764 92.4911 73.2489 91.607 75.0973C90.5545 77.2397 90.0493 78.752 90.2177 79.2981C90.3861 79.7602 90.8492 80.6003 91.3123 81.1884C91.7333 81.7765 92.1122 82.8688 92.0701 83.6249C92.0701 84.5911 91.5228 85.5993 90.0493 87.4056C88.9126 88.7079 86.9761 90.6822 85.7131 91.7745C84.4501 92.8667 82.8504 93.8749 82.1768 94.0009C81.2085 94.2109 80.5349 94.0009 79.314 93.2027C78.472 92.6146 77.3775 92.1105 76.9144 92.1105C76.4513 92.1105 74.9778 92.6566 73.6306 93.3288C72.3255 94.0009 69.8838 95.0091 68.284 95.5972C66.6842 96.1853 65.0424 96.7734 64.7056 96.8994C64.3688 97.0255 63.8215 97.6136 63.5268 98.2017C63.2742 98.7898 63.0216 99.5879 63.0216 99.966C63.0637 100.386 62.6427 101.226 62.1796 101.856Z" fill="#5C8C9F"/>
</g>
<path id="COVER" d="M4 53.4506L8 51.5L19.5 49L27.5685 53.4506L55.5 55L82.7055 53.4506L89 49L98.5 50.5L103 51.5L110.274 104.604H0L4 53.4506Z" fill="#1C1C1C"/>
<g id="logo ABI 7_layerstyle">
<g id="coline">
<path id="Vector_2" d="M19.3375 50.7364C20.9372 50.4003 23.5053 49.9383 25.1472 49.7282C26.789 49.5182 30.0728 49.4342 32.5145 49.5602C34.9563 49.6862 38.5347 50.1063 40.5134 50.5684C42.4921 50.9885 45.3127 51.7866 46.8283 52.3747C48.3439 52.9208 50.1962 53.677 50.954 54.0971C51.6697 54.4751 52.3012 54.8952 52.3012 55.1052C52.3012 55.2733 51.796 55.6934 51.1645 56.0714C50.4909 56.4495 48.386 58.2558 46.4494 60.0622C44.5128 61.9105 41.7764 64.8931 40.3871 66.7415C39.0399 68.5898 36.8508 72.1605 35.6299 74.723C34.3669 77.2855 32.9355 80.9822 32.4303 83.0406C31.8831 85.057 31.3779 86.6953 31.2516 86.6953C31.1253 86.6953 29.8202 85.8971 28.3046 84.9309C26.8311 83.9227 24.0526 81.6123 22.2002 79.7639C20.3479 77.9156 17.7377 74.807 16.4326 72.8326C15.1276 70.8582 13.3594 67.7497 12.4753 65.9013C11.6333 64.053 10.4966 60.7343 9.94934 58.5499C9.14946 55.4413 9.06526 54.4751 9.44415 54.2651C9.73885 54.055 11.4649 53.3829 13.2752 52.6688C15.0434 51.9967 17.7798 51.1145 19.3375 50.7364Z" fill="#1A6A66"/>
<path id="Vector_3" d="M65.3522 51.8288C67.5414 51.0727 70.9514 50.2325 72.9301 49.8965C75.1193 49.5604 78.4872 49.3924 81.5604 49.5184C84.339 49.6024 87.9595 49.9385 89.5593 50.3166C91.1591 50.6526 93.8534 51.4088 95.4532 51.9549C97.053 52.543 99.1158 53.3411 99.9999 53.7612C101.515 54.5174 101.6 54.6434 101.347 56.0296C101.179 56.8278 100.589 59.0122 99.9999 60.8606C99.4105 62.7089 98.0633 65.9435 97.0109 68.0019C95.9163 70.0603 94.2744 72.8328 93.3061 74.0931C92.3799 75.3533 90.5697 77.4957 89.3067 78.882C88.0437 80.2263 85.602 82.4107 83.8759 83.7129C82.1498 85.0152 79.3713 86.8215 77.7715 87.7457C76.1717 88.6279 73.0985 89.9721 71.0356 90.7283C68.9728 91.4844 65.5206 92.4086 63.4578 92.7867C60.5108 93.3748 58.3217 93.4588 53.5644 93.2908C49.3124 93.1227 46.4076 92.7867 44.0921 92.1565C42.2397 91.6944 39.2086 90.6863 33.9883 88.5859L34.1146 87.1156C34.1988 86.3174 34.7461 84.133 35.3355 82.2846C35.9248 80.4363 37.1457 77.4117 38.0719 75.5634C38.9981 73.715 40.5558 71.0685 41.4819 69.6822C42.4502 68.296 44.6394 65.6915 46.4076 63.8431C48.1336 62.0368 50.7859 59.6423 52.3015 58.5501C53.817 57.4159 56.4693 55.7776 58.1954 54.8114C59.9214 53.8872 63.1631 52.543 65.3522 51.8288Z" fill="#228D88"/>
</g>
</g>
</g>
</svg>
