<svg width="111" height="105" viewBox="0 0 111 105" fill="none" xmlns="http://www.w3.org/2000/svg">
<path d="M45.3862 23.8865C46.6492 23.2984 48.7542 22.5842 50.0171 22.2482C51.4906 21.8701 53.9324 21.7441 56.753 21.8281C60.2052 21.9121 61.847 22.2062 64.3309 23.0463C66.0569 23.6765 68.5408 24.8947 69.8038 25.7348C71.0668 26.575 73.0454 28.2553 74.2242 29.4316C75.3609 30.6498 77.0028 32.9182 77.8868 34.5145C78.7288 36.1108 79.6971 38.4633 80.076 39.7235C80.4128 40.9838 80.8338 43.0842 81.2548 46.6548L77.5079 46.9909C75.4872 47.2009 72.456 47.621 70.8563 47.9571C69.2565 48.2931 66.52 49.0493 64.8782 49.5954C63.1942 50.1835 60.4577 51.3177 55.911 53.5862L53.3009 52.2839C51.8274 51.5278 49.4277 50.4776 47.9122 49.9315C46.3966 49.3433 43.5338 48.5452 41.5131 48.0831C39.4502 47.663 36.2086 47.1589 30.6094 46.6548L30.862 44.3444C31.0304 43.0842 31.4093 40.9838 31.7882 39.7235C32.1249 38.4633 32.9669 36.3629 33.5984 35.1026C34.2299 33.8424 35.5771 31.784 36.5875 30.6078C37.5979 29.3895 39.4923 27.5832 40.7553 26.659C42.0183 25.6928 44.1232 24.4326 45.3862 23.8865Z" fill="#F49A50"/>
<path d="M46.836 1.47028C47.2991 0.84016 48.1411 0.252048 48.6463 0.168032C49.1515 0.042008 52.0984 0 55.1717 0L55.1906 0.00028611C60.729 0.0840175 60.8141 0.0853049 61.8233 1.21823C62.3706 1.89036 62.8337 2.77253 62.8337 3.23462C62.8337 3.6967 63.0863 4.53687 63.381 5.12498C63.6336 5.71309 64.1809 6.3012 64.5177 6.42723C64.8545 6.55325 66.4964 7.14136 68.0961 7.72947C69.6959 8.31759 72.1377 9.32578 73.4848 9.99791C74.7899 10.67 76.2634 11.2161 76.7265 11.2161C77.1896 11.2161 78.2841 10.7541 79.1682 10.1659C80.0102 9.57783 80.9785 9.11574 81.2732 9.11574C81.5258 9.11574 82.1994 9.28377 82.7467 9.49381C83.2519 9.70385 84.8095 10.8801 86.1567 12.1403C87.546 13.3585 89.3984 15.2489 90.2824 16.3411C91.377 17.7274 91.8822 18.7776 91.8822 19.7018C91.9243 20.4579 91.5454 21.5501 91.1244 22.1382C90.7034 22.7263 90.1982 23.5245 90.0719 23.9026C89.9035 24.3646 90.4087 25.961 91.4191 28.1034C92.3032 30.0357 93.4399 32.8503 93.9451 34.4466C94.4503 36.0429 95.166 37.4291 95.5869 37.6392C95.9658 37.8072 97.0183 38.1013 97.9024 38.2693C98.9128 38.4373 99.7548 38.8994 100.302 39.6556C100.891 40.4957 101.228 41.798 101.397 44.1924C101.523 46.0408 101.523 48.4772 101.06 51.7539L98.0708 50.6197C96.3868 50.0315 93.903 49.1914 89.9877 48.0992L89.693 44.4865C89.5667 42.4701 89.1037 39.6136 88.7248 38.1013C88.3459 36.589 87.2934 33.7744 86.3672 31.8001C85.441 29.8257 83.5887 26.8431 82.2836 25.1208C80.9785 23.3985 78.8314 21.13 77.5685 20.0378C76.3055 18.9876 73.9058 17.3493 72.3061 16.3831C70.7063 15.4169 67.5488 13.9887 65.3597 13.2325C61.4444 11.8883 61.1918 11.8463 54.4139 11.8463C47.6359 11.8463 47.3833 11.8883 43.4681 13.2325C41.2789 13.9887 38.2478 15.3329 36.7322 16.2151C35.2166 17.1393 32.8591 18.7776 31.5119 19.8698C30.1647 21.004 28.0176 23.2304 26.7126 24.8687C25.4496 26.465 23.6393 29.4896 22.6289 31.59C21.6186 33.6904 20.524 36.589 20.1451 38.1013C19.7662 39.6136 19.3452 42.4281 18.9663 47.9731L15.7247 48.9393C13.9565 49.4434 11.5147 50.3676 10.336 50.9137C8.27309 51.8799 8.06259 51.9219 7.81 51.2078C7.5995 50.8297 7.5153 48.3092 7.5574 45.6627C7.5995 41.6299 7.7679 40.6638 8.44148 39.7816C8.90458 39.1515 9.99916 38.5634 11.0937 38.2693C12.1041 38.0173 13.1987 37.6812 13.4934 37.5552C13.746 37.3871 14.4196 36.0009 14.8827 34.4466C15.3879 32.8503 16.5245 30.0777 17.4086 28.2294C18.4611 26.087 18.9663 24.5747 18.7979 24.0286C18.6295 23.5665 18.1664 22.7263 17.7033 22.1382C17.2823 21.5501 16.9034 20.4579 16.9455 19.7018C16.9455 18.7356 17.4928 17.7274 18.9663 15.921C20.103 14.6188 22.0395 12.6444 23.3025 11.5522C24.5655 10.46 26.1653 9.4518 26.8389 9.32578C27.8071 9.11574 28.4807 9.32578 29.7016 10.1239C30.5436 10.712 31.6382 11.2161 32.1013 11.2161C32.5644 11.2161 34.0378 10.67 35.385 9.99791C36.6901 9.32578 39.1318 8.31759 40.7316 7.72947C42.3314 7.14136 43.9733 6.55325 44.3101 6.42723C44.6468 6.3012 45.1941 5.71309 45.4888 5.12498C45.7414 4.53687 45.994 3.73871 45.994 3.36064C45.9519 2.94056 46.3729 2.1004 46.836 1.47028Z" fill="#5C8C9F"/>
<path d="M4 53.4506L11 52.4998L19.5 49L27.5685 53.4506H55.137H82.7055L89 49L98 51.5L103 53L110.274 104.604H0L4 53.4506Z" fill="#1C1C1C"/>
<path d="M19.3375 50.7364C20.9372 50.4003 23.5053 49.9383 25.1472 49.7282C26.789 49.5182 30.0728 49.4342 32.5145 49.5602C34.9563 49.6862 38.5347 50.1063 40.5134 50.5684C42.4921 50.9885 45.3127 51.7866 46.8283 52.3747C48.3439 52.9208 50.1962 53.677 50.954 54.0971C51.6697 54.4751 52.3012 54.8952 52.3012 55.1052C52.3012 55.2733 51.796 55.6934 51.1645 56.0714C50.4909 56.4495 48.386 58.2558 46.4494 60.0622C44.5128 61.9105 41.7764 64.8931 40.3871 66.7415C39.0399 68.5898 36.8508 72.1605 35.6299 74.723C34.3669 77.2855 32.9355 80.9822 32.4303 83.0406C31.8831 85.057 31.3779 86.6953 31.2516 86.6953C31.1253 86.6953 29.8202 85.8971 28.3046 84.9309C26.8311 83.9227 24.0526 81.6123 22.2002 79.7639C20.3479 77.9156 17.7377 74.807 16.4326 72.8326C15.1276 70.8582 13.3594 67.7497 12.4753 65.9013C11.6333 64.053 10.4966 60.7343 9.94934 58.5499C9.14946 55.4413 9.06526 54.4751 9.44415 54.2651C9.73885 54.055 11.4649 53.3829 13.2752 52.6688C15.0434 51.9967 17.7798 51.1145 19.3375 50.7364Z" fill="#1A6A66"/>
<path d="M65.3522 51.8288C67.5414 51.0727 70.9514 50.2325 72.9301 49.8965C75.1193 49.5604 78.4872 49.3924 81.5604 49.5184C84.339 49.6024 87.9595 49.9385 89.5593 50.3166C91.1591 50.6526 93.8534 51.4088 95.4532 51.9549C97.053 52.543 99.1158 53.3411 99.9999 53.7612C101.515 54.5174 101.6 54.6434 101.347 56.0296C101.179 56.8278 100.589 59.0122 99.9999 60.8606C99.4105 62.7089 98.0633 65.9435 97.0109 68.0019C95.9163 70.0603 94.2744 72.8328 93.3061 74.0931C92.3799 75.3533 90.5697 77.4957 89.3067 78.882C88.0437 80.2263 85.602 82.4107 83.8759 83.7129C82.1498 85.0152 79.3713 86.8215 77.7715 87.7457C76.1717 88.6279 73.0985 89.9721 71.0356 90.7283C68.9728 91.4844 65.5206 92.4086 63.4578 92.7867C60.5108 93.3748 58.3217 93.4588 53.5644 93.2908C49.3124 93.1227 46.4076 92.7867 44.0921 92.1565C42.2397 91.6944 39.2086 90.6863 33.9883 88.5859L34.1146 87.1156C34.1988 86.3174 34.7461 84.133 35.3355 82.2846C35.9248 80.4363 37.1457 77.4117 38.0719 75.5634C38.9981 73.715 40.5558 71.0685 41.4819 69.6822C42.4502 68.296 44.6394 65.6915 46.4076 63.8431C48.1336 62.0368 50.7859 59.6423 52.3015 58.5501C53.817 57.4159 56.4693 55.7776 58.1954 54.8114C59.9214 53.8872 63.1631 52.543 65.3522 51.8288Z" fill="#228D88"/>
</svg>
